<svg width="25" height="25" viewBox="0 0 25 25" fill="none" xmlns="http://www.w3.org/2000/svg">
<path d="M22.6562 4C23.9502 4 25 5.00734 25 6.25C25 6.95781 24.6533 7.62344 24.0625 8.05L13.4375 15.7C12.8809 16.0984 12.1191 16.0984 11.5625 15.7L0.9375 8.05C0.347315 7.62344 0 6.95781 0 6.25C0 5.00734 1.04932 4 2.34375 4H22.6562ZM10.625 16.9C11.7383 17.7016 13.2617 17.7016 14.375 16.9L25 9.25V19C25 20.6547 23.5986 22 21.875 22H3.125C1.39893 22 0 20.6547 0 19V9.25L10.625 16.9Z" fill="#FFFBF1"/>
</svg>
